<svg xmlns="http://www.w3.org/2000/svg" height="24" viewBox="0 -960 960 960" width="24"><path d="M 500 -482 q 29 -32 44.5 -73 t 15.5 -85 q 0 -44 -15.5 -85 T 500 -798 q 60 8 100 53 t 40 105 q 0 60 -40 105 t -100 53 Z m 220 322 v -120 q 0 -36 -16 -68.5 T 662 -406 q 51 18 94.5 46.5 T 800 -280 v 120 h -80 Z m 80 -280 v -80 h -80 v -80 h 80 v -80 h 80 v 80 h 80 v 80 h -80 v 80 h -80 Z m -480 -40 q -66 0 -113 -47 t -47 -113 q 0 -66 47 -113 t 113 -47 q 66 0 113 47 t 47 113 q 0 66 -47 113 t -113 47 Z M 0 -160 v -112 q 0 -34 17.5 -62.5 T 64 -378 q 62 -31 126 -46.5 T 320 -440 q 66 0 130 15.5 T 576 -378 q 29 15 46.5 43.5 T 640 -272 v 112 H 0 Z m 320 -400 q 33 0 56.5 -23.5 T 400 -640 q 0 -33 -23.5 -56.5 T 320 -720 q -33 0 -56.5 23.5 T 240 -640 q 0 33 23.5 56.5 T 320 -560 Z M 80 -240 h 480 v -32 q 0 -11 -5.5 -20 T 540 -306 q -54 -27 -109 -40.5 T 320 -360 q -56 0 -111 13.5 T 100 -306 q -9 5 -14.5 14 T 80 -272 v 32 Z m 240 -400 Z m 0 400 Z"/></svg>